# Blender v2.81 (sub 16) OBJ File: 'waterdrop.blend'
# www.blender.org
mtllib waterdrop.mtl
o Icosphere
v 1.923479 4.522595 0.010400
v 1.838389 1.635360 0.272289
v 1.912258 2.111711 0.897289
v 2.775721 2.111713 0.291166
v 2.345767 1.671987 0.000000
v 1.068972 2.111713 0.263388
v 1.587958 1.671985 -0.246226
v 1.411262 2.111712 -0.734508
v 2.466092 2.111712 -0.717336
v 2.963826 2.838069 -0.000000
v 2.631207 2.842035 0.720019
v 1.605021 2.799366 0.990512
v 0.885373 2.799366 -0.000000
v 1.605021 2.799366 -0.990512
v 2.631207 2.842034 -0.720019
v 1.922636 4.448787 0.012994
vt 0.454545 0.000000
vt 0.409090 0.078731
vt 0.500000 0.078731
vt 0.683208 0.157461
vt 0.636363 0.236191
vt 0.767826 0.244679
vt 0.501390 0.157461
vt 0.504900 0.244679
vt 0.597366 0.382466
vt 0.525327 0.437520
vt 0.383763 0.437520
vt 0.352741 0.241752
vt 0.311724 0.382466
vt 0.727272 0.382466
vt 0.319572 0.157461
vt 0.170923 0.241752
vt 0.137754 0.157461
vt 0.045454 0.236191
vt 0.181818 0.382466
vt 0.000000 0.157461
vt 0.919985 0.241752
vt 0.909089 0.382466
vt 0.865026 0.157461
vt 0.272727 0.078731
vt 0.136363 0.078731
vt 0.067874 0.039899
vt 0.636363 0.078731
vt 0.841216 0.039899
vt 0.772726 0.078731
vn 0.0271 -0.9961 -0.0835
vn 0.9057 -0.0667 0.4187
vn 0.8886 -0.2024 -0.4116
vn 0.7356 0.0154 0.6773
vn -0.9624 0.0205 0.2709
vn 0.7826 0.5088 -0.3587
vn 0.7849 0.5045 0.3598
vn 0.2080 0.4622 -0.8620
vn 0.2568 -0.0616 -0.9645
vn 0.0152 -0.3526 -0.9356
vn -0.7197 0.4567 -0.5229
vn -0.8090 0.0091 -0.5878
vn -0.8851 -0.3526 -0.3036
vn -0.7224 0.4502 0.5249
vn -0.8090 0.0091 0.5878
vn -0.5623 -0.3526 0.7480
vn 0.2068 0.4690 0.8586
vn 0.2555 -0.0169 0.9667
vn 0.5394 -0.3445 0.7684
vn 0.8979 -0.3431 -0.2757
vn 0.1612 -0.8532 -0.4960
vn 0.0109 -0.7411 -0.6713
vn -0.7602 -0.5950 -0.2608
vn -0.5183 -0.8335 0.1914
vn -0.4344 -0.6909 0.5779
vn 0.7683 -0.5950 -0.2359
vn 0.3463 -0.7654 0.5424
vn 0.3858 -0.7411 0.5495
g Icosphere_Icosphere_Material.001
usemtl Material.001
s off
f 2/1/1 7/2/1 5/3/1
f 4/4/2 10/5/2 11/6/2
f 9/7/3 15/8/3 10/5/3
f 16/9/4 15/8/4 1/10/4
f 1/11/5 14/12/5 16/13/5
f 10/5/6 15/8/6 16/14/6
f 10/5/7 16/14/7 11/6/7
f 15/8/8 14/12/8 1/10/8
f 15/8/9 9/7/9 14/12/9
f 9/7/10 8/15/10 14/12/10
f 14/12/11 13/16/11 16/13/11
f 14/12/12 8/15/12 13/16/12
f 8/15/13 6/17/13 13/16/13
f 13/16/14 12/18/14 16/19/14
f 13/16/15 6/17/15 12/18/15
f 6/17/16 3/20/16 12/18/16
f 12/21/17 11/6/17 16/22/17
f 12/21/18 3/23/18 11/6/18
f 3/23/19 4/4/19 11/6/19
f 4/4/20 9/7/20 10/5/20
f 5/3/21 7/2/21 9/7/21
f 7/2/22 8/15/22 9/7/22
f 7/24/23 6/17/23 8/15/23
f 7/25/24 2/26/24 6/17/24
f 2/26/25 3/20/25 6/17/25
f 4/4/26 5/27/26 9/7/26
f 2/28/27 5/29/27 3/23/27
f 5/29/28 4/4/28 3/23/28
